<svg xmlns="http://www.w3.org/2000/svg" xmlns:xlink="http://www.w3.org/1999/xlink" width="40" zoomAndPan="magnify" viewBox="0 0 30 30.000001" height="40" preserveAspectRatio="xMidYMid meet" version="1.0"><defs><filter x="0%" y="0%" width="100%" height="100%" id="6b143bff9a"><feColorMatrix values="0 0 0 0 1 0 0 0 0 1 0 0 0 0 1 0 0 0 1 0" color-interpolation-filters="sRGB"/></filter><clipPath id="1642b1c8d4"><path d="M 0.484375 0 L 29.515625 0 L 29.515625 29.03125 L 0.484375 29.03125 Z M 0.484375 0 " clip-rule="nonzero"/></clipPath><mask id="553a77e5cb"><g filter="url(#6b143bff9a)"><rect x="-3" width="36" fill="#000000" y="-3" height="36.000001" fill-opacity="0.5405"/></g></mask><clipPath id="e03708c5c4"><path d="M 1 1 L 2.289062 1 L 2.289062 2.289062 L 1 2.289062 Z M 1 1 " clip-rule="nonzero"/></clipPath><clipPath id="44e92c5e3a"><rect x="0" width="3" y="0" height="3"/></clipPath></defs><g clip-path="url(#1642b1c8d4)"><path fill="#ffffff" d="M 0.484375 0 L 29.515625 0 L 29.515625 29.03125 L 0.484375 29.03125 Z M 0.484375 0 " fill-opacity="1" fill-rule="nonzero"/><path fill="#ffffff" d="M 0.484375 0 L 29.515625 0 L 29.515625 29.03125 L 0.484375 29.03125 Z M 0.484375 0 " fill-opacity="1" fill-rule="nonzero"/></g><path fill="#ece1ef" d="M 26.785156 26.878906 C 29.570312 25.09375 29.753906 16.429688 24.363281 14.40625 C 18.980469 12.378906 19.976562 7.261719 15.445312 3.4375 C 11.316406 -0.046875 4.480469 2.90625 2.203125 11.972656 C 0.582031 18.4375 2.476562 26.546875 3.765625 26.882812 C 16.335938 26.878906 26.785156 26.878906 26.785156 26.878906 Z M 26.785156 26.878906 " fill-opacity="1" fill-rule="nonzero"/><path fill="#8282a8" d="M 22.6875 26.703125 C 22.6875 26.703125 25.453125 25.339844 25.925781 24.628906 C 26.402344 23.917969 25.703125 23.878906 25.703125 23.878906 C 25.703125 23.878906 26.9375 22.679688 26.765625 22.171875 C 26.589844 21.667969 25.941406 22.152344 25.941406 22.152344 C 25.941406 22.152344 26.742188 20.367188 26.371094 20.1875 C 25.671875 19.855469 24.695312 21.757812 24.695312 21.757812 C 24.695312 21.757812 24.90625 20.929688 24.425781 20.960938 C 23.707031 21 23.734375 22.867188 23.734375 22.867188 C 23.734375 22.867188 23.652344 22.152344 23.21875 22.382812 C 22.433594 22.800781 22.6875 26.703125 22.6875 26.703125 Z M 22.6875 26.703125 " fill-opacity="1" fill-rule="nonzero"/><path fill="#b1b1de" d="M 23.148438 22.097656 C 23.621094 21.953125 23.730469 22.476562 23.730469 22.476562 C 23.730469 22.476562 23.703125 20.996094 24.425781 20.957031 C 24.910156 20.929688 24.695312 21.753906 24.695312 21.753906 C 24.695312 21.753906 25.671875 19.851562 26.371094 20.183594 C 26.371094 20.183594 22.683594 26.671875 22.683594 26.671875 C 22.660156 26.222656 22.46875 22.300781 23.148438 22.097656 Z M 23.148438 22.097656 " fill-opacity="1" fill-rule="nonzero"/><path fill="#8282a8" d="M 22.761719 26.722656 C 22.761719 26.722656 25.019531 27.003906 25.605469 26.753906 C 26.191406 26.503906 25.773438 26.195312 25.773438 26.195312 C 25.773438 26.195312 27.03125 25.949219 27.128906 25.5625 C 27.226562 25.175781 26.625 25.214844 26.625 25.214844 C 26.625 25.214844 27.851562 24.425781 27.6875 24.164062 C 27.390625 23.675781 26.007812 24.464844 26.007812 24.464844 C 26.007812 24.464844 26.476562 24.035156 26.164062 23.859375 C 25.699219 23.589844 24.957031 24.765625 24.957031 24.765625 C 24.957031 24.765625 25.003906 24.476562 24.636719 24.445312 C 23.976562 24.382812 22.761719 26.722656 22.761719 26.722656 Z M 22.761719 26.722656 " fill-opacity="1" fill-rule="nonzero"/><path fill="#3e3d51" d="M 24.601562 24.359375 C 24.96875 24.390625 24.953125 24.757812 24.953125 24.757812 C 24.953125 24.757812 25.695312 23.582031 26.160156 23.851562 C 26.472656 24.027344 26.003906 24.457031 26.003906 24.457031 C 26.003906 24.457031 27.386719 23.667969 27.6875 24.160156 C 27.6875 24.160156 22.75 26.703125 22.75 26.703125 C 22.921875 26.414062 23.988281 24.308594 24.601562 24.359375 Z M 24.601562 24.359375 " fill-opacity="1" fill-rule="nonzero"/><path fill="#3e3d51" d="M 28.617188 26.851562 C 28.617188 26.800781 28.589844 26.757812 28.554688 26.757812 C 28.554688 26.757812 1.496094 26.757812 1.496094 26.757812 C 1.457031 26.757812 1.421875 26.800781 1.421875 26.851562 C 1.421875 26.902344 1.457031 26.945312 1.496094 26.945312 C 1.496094 26.945312 28.558594 26.945312 28.558594 26.945312 C 28.589844 26.945312 28.617188 26.902344 28.617188 26.851562 Z M 28.617188 26.851562 " fill-opacity="1" fill-rule="nonzero"/><path fill="#8282a8" d="M 8.113281 26.710938 C 8.113281 26.710938 4.507812 24.933594 3.886719 24.007812 C 3.265625 23.082031 4.179688 23.027344 4.179688 23.027344 C 4.179688 23.027344 2.574219 21.460938 2.800781 20.804688 C 3.027344 20.148438 3.871094 20.777344 3.871094 20.777344 C 3.871094 20.777344 2.824219 18.449219 3.3125 18.21875 C 4.21875 17.785156 5.496094 20.265625 5.496094 20.265625 C 5.496094 20.265625 5.21875 19.1875 5.847656 19.226562 C 6.789062 19.277344 6.75 21.710938 6.75 21.710938 C 6.75 21.710938 6.859375 20.777344 7.429688 21.082031 C 8.445312 21.621094 8.113281 26.710938 8.113281 26.710938 Z M 8.113281 26.710938 " fill-opacity="1" fill-rule="nonzero"/><path fill="#b1b1de" d="M 7.613281 20.824219 C 7.113281 20.53125 6.738281 21.222656 6.738281 21.222656 C 6.738281 21.222656 6.785156 19.273438 5.839844 19.222656 C 5.214844 19.1875 5.488281 20.261719 5.488281 20.261719 C 5.488281 20.261719 4.214844 17.785156 3.304688 18.214844 C 3.304688 18.214844 8.113281 26.671875 8.113281 26.671875 C 8.148438 26.082031 8.277344 21.214844 7.613281 20.824219 Z M 7.613281 20.824219 " fill-opacity="1" fill-rule="nonzero"/><path fill="#8282a8" d="M 8.019531 26.734375 C 8.019531 26.734375 5.070312 27.097656 4.304688 26.769531 C 3.542969 26.441406 4.089844 26.042969 4.089844 26.042969 C 4.089844 26.042969 2.449219 25.722656 2.324219 25.21875 C 2.199219 24.714844 2.980469 24.765625 2.980469 24.765625 C 2.980469 24.765625 1.382812 23.738281 1.59375 23.394531 C 1.984375 22.757812 3.785156 23.785156 3.785156 23.785156 C 3.785156 23.785156 3.179688 23.222656 3.582031 22.992188 C 4.195312 22.644531 5.15625 24.175781 5.15625 24.175781 C 5.15625 24.175781 5.097656 23.800781 5.574219 23.757812 C 6.429688 23.679688 8.019531 26.734375 8.019531 26.734375 Z M 8.019531 26.734375 " fill-opacity="1" fill-rule="nonzero"/><path fill="#3e3d51" d="M 5.574219 23.503906 C 5.09375 23.542969 5.15625 24.179688 5.15625 24.179688 C 5.15625 24.179688 4.300781 22.542969 3.582031 22.972656 C 3.179688 23.210938 3.734375 23.765625 3.734375 23.765625 C 3.734375 23.765625 1.984375 22.761719 1.59375 23.402344 C 1.59375 23.402344 8.027344 26.722656 8.027344 26.722656 C 7.808594 26.335938 6.371094 23.433594 5.574219 23.503906 Z M 5.574219 23.503906 " fill-opacity="1" fill-rule="nonzero"/><path fill="#3e3d51" d="M 23.148438 23.957031 C 23.148438 23.957031 7.554688 23.957031 7.554688 23.957031 C 6.957031 23.957031 6.476562 23.535156 6.476562 23.015625 C 6.476562 23.015625 6.476562 22.460938 6.476562 22.460938 C 6.476562 21.941406 6.957031 21.519531 7.554688 21.519531 C 7.554688 21.519531 23.148438 21.519531 23.148438 21.519531 C 22.4375 22.203125 22.421875 23.238281 23.121094 23.929688 C 23.121094 23.929688 23.148438 23.957031 23.148438 23.957031 Z M 23.148438 23.957031 " fill-opacity="1" fill-rule="nonzero"/><path fill="#fbf3ff" d="M 22.929688 21.800781 C 22.929688 21.800781 15.082031 21.800781 15.082031 21.800781 C 14.542969 21.800781 14.105469 22.222656 14.105469 22.738281 C 14.105469 23.257812 14.542969 23.675781 15.082031 23.675781 C 15.082031 23.675781 22.925781 23.675781 22.925781 23.675781 C 22.566406 23.101562 22.566406 22.375 22.929688 21.800781 Z M 22.929688 21.800781 " fill-opacity="1" fill-rule="nonzero"/><path fill="#ff7685" d="M 25.476562 23.828125 C 25.476562 23.828125 5.835938 23.828125 5.835938 23.828125 C 5.226562 23.828125 4.730469 24.289062 4.730469 24.867188 C 4.730469 24.867188 4.730469 25.742188 4.730469 25.742188 C 4.730469 26.316406 5.226562 26.78125 5.835938 26.78125 C 5.835938 26.78125 25.480469 26.78125 25.480469 26.78125 C 25.480469 26.78125 25.46875 26.769531 25.46875 26.769531 C 24.628906 25.949219 24.632812 24.648438 25.476562 23.828125 Z M 25.476562 23.828125 " fill-opacity="1" fill-rule="nonzero"/><path fill="#fbf3ff" d="M 25.132812 24.265625 C 25.132812 24.265625 14.632812 24.265625 14.632812 24.265625 C 14.019531 24.265625 13.527344 24.730469 13.527344 25.304688 C 13.527344 25.882812 14.019531 26.34375 14.632812 26.34375 C 14.632812 26.34375 25.132812 26.34375 25.132812 26.34375 C 24.746094 25.699219 24.746094 24.910156 25.132812 24.265625 Z M 25.132812 24.265625 " fill-opacity="1" fill-rule="nonzero"/><path fill="#3e3d51" d="M 19.078125 25.308594 C 19.078125 25.308594 18.273438 25.308594 18.273438 25.308594 C 18.101562 25.308594 17.964844 25.449219 17.964844 25.621094 C 17.964844 25.621094 17.964844 25.648438 17.964844 25.648438 C 17.964844 25.648438 19.078125 25.648438 19.078125 25.648438 C 19.078125 25.648438 19.078125 25.308594 19.078125 25.308594 Z M 19.078125 25.308594 " fill-opacity="1" fill-rule="nonzero"/><path fill="#8282a8" d="M 18.308594 25.3125 C 18.5 25.3125 18.785156 25.472656 18.945312 25.675781 C 18.945312 25.675781 20.847656 28.035156 20.847656 28.035156 C 20.847656 28.035156 21.964844 28.035156 21.964844 28.035156 C 21.964844 28.035156 20.15625 25.789062 20.15625 25.789062 C 19.945312 25.527344 19.566406 25.3125 19.316406 25.3125 C 19.316406 25.3125 18.308594 25.3125 18.308594 25.3125 Z M 18.308594 25.3125 " fill-opacity="1" fill-rule="nonzero"/><g mask="url(#553a77e5cb)"><g transform="matrix(1, 0, 0, 1, 4, 7)"><g clip-path="url(#44e92c5e3a)"><g clip-path="url(#e03708c5c4)"><path fill="#ff7685" d="M 1.691406 2.179688 C 1.683594 2.195312 1.671875 2.207031 1.65625 2.210938 C 1.640625 2.214844 1.621094 2.207031 1.609375 2.191406 C 1.609375 2.191406 1.421875 1.921875 1.421875 1.921875 C 1.421875 1.921875 1.089844 1.921875 1.089844 1.921875 C 1.074219 1.921875 1.058594 1.910156 1.050781 1.894531 C 1.042969 1.882812 1.042969 1.859375 1.050781 1.847656 C 1.050781 1.847656 1.25 1.585938 1.25 1.585938 C 1.25 1.585938 1.148438 1.273438 1.148438 1.273438 C 1.144531 1.253906 1.148438 1.238281 1.160156 1.226562 C 1.175781 1.214844 1.191406 1.207031 1.207031 1.214844 C 1.207031 1.214844 1.515625 1.324219 1.515625 1.324219 C 1.515625 1.324219 1.78125 1.128906 1.78125 1.128906 C 1.796875 1.117188 1.8125 1.117188 1.832031 1.125 C 1.84375 1.132812 1.855469 1.148438 1.855469 1.167969 C 1.855469 1.167969 1.847656 1.5 1.847656 1.5 C 1.847656 1.5 2.117188 1.691406 2.117188 1.691406 C 2.128906 1.699219 2.136719 1.71875 2.132812 1.734375 C 2.128906 1.753906 2.121094 1.765625 2.101562 1.769531 C 2.101562 1.769531 1.785156 1.863281 1.785156 1.863281 C 1.785156 1.863281 1.691406 2.179688 1.691406 2.179688 Z M 1.691406 2.179688 " fill-opacity="1" fill-rule="nonzero"/></g></g></g></g><path fill="#ece1ef" d="M 27.527344 10.492188 C 27.78125 10.730469 27.785156 11.128906 27.546875 11.378906 C 27.304688 11.632812 26.90625 11.636719 26.65625 11.398438 C 26.40625 11.15625 26.398438 10.757812 26.640625 10.507812 C 26.878906 10.261719 27.277344 10.25 27.527344 10.492188 Z M 27.527344 10.492188 " fill-opacity="1" fill-rule="nonzero"/><path fill="#8282a8" d="M 27.515625 11.015625 C 27.515625 11.015625 27.246094 11.101562 27.246094 11.101562 C 27.246094 11.101562 27.164062 11.371094 27.164062 11.371094 C 27.15625 11.390625 27.128906 11.394531 27.113281 11.375 C 27.113281 11.375 26.953125 11.144531 26.953125 11.144531 C 26.953125 11.144531 26.675781 11.148438 26.675781 11.148438 C 26.652344 11.148438 26.640625 11.125 26.652344 11.105469 C 26.652344 11.105469 26.820312 10.882812 26.820312 10.882812 C 26.820312 10.882812 26.730469 10.617188 26.730469 10.617188 C 26.722656 10.59375 26.742188 10.574219 26.765625 10.582031 C 26.765625 10.582031 27.03125 10.671875 27.03125 10.671875 C 27.03125 10.671875 27.253906 10.503906 27.253906 10.503906 C 27.269531 10.492188 27.296875 10.503906 27.296875 10.523438 C 27.296875 10.523438 27.292969 10.804688 27.292969 10.804688 C 27.292969 10.804688 27.519531 10.96875 27.519531 10.96875 C 27.539062 10.980469 27.535156 11.011719 27.515625 11.015625 Z M 27.515625 11.015625 " fill-opacity="1" fill-rule="nonzero"/><path fill="#b1b1de" d="M 23.609375 5.507812 C 23.609375 5.507812 23.5 5.714844 23.5 5.714844 C 23.234375 6.203125 22.878906 6.644531 22.445312 7.023438 C 22.445312 7.023438 22.398438 7.066406 22.398438 7.066406 C 22.398438 7.066406 22.488281 7.480469 22.90625 7.40625 C 23.230469 6.910156 23.609375 6.46875 24.050781 6.054688 C 24.050781 6.054688 24.214844 5.925781 24.214844 5.925781 C 24.214844 5.925781 23.609375 5.507812 23.609375 5.507812 Z M 23.609375 5.507812 " fill-opacity="1" fill-rule="nonzero"/><path fill="#d6d6ed" d="M 24.21875 5.925781 C 24.195312 5.957031 24.035156 5.886719 23.871094 5.769531 C 23.703125 5.65625 23.585938 5.535156 23.609375 5.503906 C 23.636719 5.472656 23.792969 5.542969 23.960938 5.664062 C 24.128906 5.78125 24.242188 5.894531 24.21875 5.925781 Z M 24.21875 5.925781 " fill-opacity="1" fill-rule="nonzero"/><path fill="#8282a8" d="M 24.21875 5.925781 C 24.21875 5.925781 23.835938 5.710938 23.765625 5.59375 C 23.765625 5.59375 23.71875 5.652344 23.71875 5.652344 C 23.761719 5.691406 23.8125 5.730469 23.871094 5.769531 C 24.035156 5.886719 24.191406 5.957031 24.21875 5.925781 Z M 24.21875 5.925781 " fill-opacity="1" fill-rule="nonzero"/><path fill="#ff7685" d="M 23.519531 6.605469 C 23.472656 6.621094 23.253906 6.671875 23.058594 6.378906 C 23.035156 6.410156 23.011719 6.441406 22.984375 6.472656 C 23.117188 6.652344 23.257812 6.707031 23.359375 6.722656 C 23.378906 6.726562 23.398438 6.726562 23.414062 6.726562 C 23.449219 6.6875 23.484375 6.644531 23.519531 6.605469 Z M 23.519531 6.605469 " fill-opacity="1" fill-rule="nonzero"/><path fill="#ff7685" d="M 23.132812 6.386719 C 23.132812 6.386719 22.996094 5.910156 22.996094 5.910156 C 22.996094 5.910156 22.925781 6.054688 22.925781 6.054688 C 22.925781 6.054688 22.773438 6.03125 22.773438 6.03125 C 22.773438 6.03125 23.042969 6.441406 23.042969 6.441406 C 23.042969 6.441406 23.132812 6.386719 23.132812 6.386719 Z M 23.132812 6.386719 " fill-opacity="1" fill-rule="nonzero"/><path fill="#ff7685" d="M 23.023438 6.472656 C 23.023438 6.472656 22.648438 6.40625 22.648438 6.40625 C 22.648438 6.40625 22.734375 6.511719 22.734375 6.511719 C 22.734375 6.511719 22.648438 6.585938 22.648438 6.585938 C 22.648438 6.585938 23.011719 6.558594 23.011719 6.558594 C 23.011719 6.558594 23.023438 6.472656 23.023438 6.472656 Z M 23.023438 6.472656 " fill-opacity="1" fill-rule="nonzero"/><path fill="#ff7685" d="M 22.957031 6.5625 C 22.925781 6.480469 22.972656 6.382812 23.066406 6.351562 C 23.15625 6.316406 23.261719 6.351562 23.292969 6.429688 C 23.328125 6.511719 23.28125 6.609375 23.1875 6.644531 C 23.089844 6.679688 22.992188 6.644531 22.957031 6.5625 Z M 22.957031 6.5625 " fill-opacity="1" fill-rule="nonzero"/><path fill="#f7a491" d="M 11.378906 16.691406 C 11.378906 16.691406 9.726562 14.273438 9.726562 14.273438 C 9.726562 14.273438 9.726562 14.269531 9.726562 14.269531 C 9.726562 14.269531 9.351562 14.378906 9.433594 14.800781 C 9.527344 15.070312 10.40625 18.214844 11.382812 18.558594 C 11.382812 18.558594 11.902344 18.183594 12.015625 17.597656 C 12.023438 17.589844 11.378906 16.691406 11.378906 16.691406 Z M 11.378906 16.691406 " fill-opacity="1" fill-rule="nonzero"/><path fill="#f7a491" d="M 8.871094 14.40625 C 8.800781 14.433594 8.539062 14.445312 8.472656 14.421875 C 8.402344 14.398438 8.300781 14.132812 8.300781 14.132812 C 8.300781 14.132812 8.332031 14.050781 8.339844 13.992188 C 8.414062 14.078125 8.738281 14.039062 8.8125 14.085938 C 8.886719 14.140625 8.945312 14.375 8.871094 14.40625 Z M 9.726562 14.273438 C 9.726562 14.273438 9.726562 14.269531 9.726562 14.269531 C 9.726562 14.269531 9.121094 13.960938 8.964844 13.929688 C 8.832031 13.90625 8.394531 13.863281 8.324219 13.9375 C 8.320312 13.933594 8.316406 13.925781 8.3125 13.925781 C 8.25 13.914062 8.148438 14.109375 8.132812 14.152344 C 8.117188 14.203125 8.238281 14.472656 8.25 14.496094 C 8.257812 14.515625 8.214844 14.527344 8.164062 14.503906 C 8.113281 14.484375 7.945312 14.296875 7.945312 14.296875 C 7.945312 14.296875 7.925781 13.988281 7.828125 13.988281 C 7.730469 13.988281 7.820312 14.375 7.820312 14.375 C 7.820312 14.375 7.917969 14.503906 7.917969 14.503906 C 7.917969 14.503906 7.773438 14.417969 7.773438 14.417969 C 7.773438 14.417969 7.675781 14.210938 7.652344 14.222656 C 7.628906 14.234375 7.59375 14.339844 7.644531 14.449219 C 7.699219 14.558594 7.816406 14.675781 7.816406 14.675781 C 7.816406 14.675781 8.03125 14.789062 8.03125 14.789062 C 8.03125 14.789062 7.78125 14.765625 7.707031 14.710938 C 7.632812 14.65625 7.601562 14.734375 7.660156 14.800781 C 7.722656 14.867188 8.054688 14.984375 8.261719 15.007812 C 8.472656 15.03125 9.121094 14.992188 9.21875 14.996094 C 9.210938 14.992188 9.5 15 9.507812 15 C 10 14.816406 9.726562 14.273438 9.726562 14.273438 Z M 9.726562 14.273438 " fill-opacity="1" fill-rule="nonzero"/><path fill="#f7a491" d="M 11.90625 15.003906 C 11.90625 15.003906 11.378906 16.691406 11.378906 16.691406 C 11.378906 16.691406 10.40625 18.214844 11.382812 18.558594 C 11.382812 18.558594 11.835938 18.5 12.347656 17.332031 C 12.859375 16.164062 13.136719 15.457031 13.136719 15.457031 C 13.136719 15.457031 11.90625 15.003906 11.90625 15.003906 Z M 11.90625 15.003906 " fill-opacity="1" fill-rule="nonzero"/><path fill="#ff7685" d="M 13.734375 12.1875 C 13.734375 12.1875 13.335938 11.984375 13.335938 11.984375 C 13.335938 11.984375 12.832031 12.003906 12.648438 12.449219 C 12.515625 12.765625 11.585938 15.253906 11.585938 15.253906 C 11.585938 15.253906 12.796875 15.726562 13.179688 15.707031 C 13.179688 15.707031 13.769531 14.15625 13.769531 14.15625 C 13.769531 14.15625 13.734375 12.1875 13.734375 12.1875 Z M 13.734375 12.1875 " fill-opacity="1" fill-rule="nonzero"/><path fill="#333343" d="M 13.800781 11.105469 C 13.5 10.484375 13.480469 9.3125 13.71875 8.625 C 13.910156 8.066406 14.375 7.75 14.96875 7.6875 C 15.65625 7.609375 16.097656 7.746094 16.632812 8.097656 C 17.195312 8.464844 17.863281 8.859375 18.507812 9.023438 C 19.347656 9.230469 20.214844 9.386719 20.980469 9.785156 C 21.488281 10.046875 21.960938 10.441406 22.164062 10.976562 C 22.453125 11.738281 22.121094 12.617188 21.585938 13.234375 C 20.773438 14.167969 19.496094 14.667969 18.269531 14.53125 C 17.316406 14.421875 16.417969 13.933594 15.789062 13.207031 C 15.507812 12.878906 15.292969 12.640625 14.957031 12.375 C 14.53125 12.035156 14.046875 11.601562 13.800781 11.105469 Z M 13.800781 11.105469 " fill-opacity="1" fill-rule="nonzero"/><path fill="#f7a491" d="M 22.0625 13.855469 C 22.132812 13.808594 22.460938 13.832031 22.535156 13.75 C 22.542969 13.808594 22.574219 13.882812 22.574219 13.882812 C 22.574219 13.882812 22.480469 14.152344 22.410156 14.179688 C 22.34375 14.210938 22.082031 14.203125 22.011719 14.175781 C 21.9375 14.152344 21.984375 13.914062 22.0625 13.855469 Z M 19.636719 18.414062 C 20.601562 18.035156 21.304688 15.066406 21.390625 14.796875 C 21.457031 14.753906 21.601562 14.769531 21.679688 14.78125 C 21.773438 14.796875 22.425781 14.789062 22.632812 14.761719 C 22.84375 14.730469 23.171875 14.601562 23.226562 14.535156 C 23.285156 14.46875 23.253906 14.390625 23.179688 14.449219 C 23.105469 14.507812 22.855469 14.539062 22.855469 14.539062 C 22.855469 14.539062 23.066406 14.421875 23.066406 14.421875 C 23.066406 14.421875 23.179688 14.300781 23.230469 14.1875 C 23.28125 14.078125 23.242188 13.972656 23.21875 13.964844 C 23.1875 13.953125 23.101562 14.167969 23.101562 14.167969 C 23.101562 14.167969 22.960938 14.257812 22.960938 14.257812 C 22.960938 14.257812 23.054688 14.125 23.054688 14.125 C 23.054688 14.125 23.128906 13.738281 23.03125 13.738281 C 22.933594 13.738281 22.925781 14.046875 22.925781 14.046875 C 22.925781 14.046875 22.765625 14.242188 22.71875 14.269531 C 22.664062 14.289062 22.625 14.277344 22.632812 14.257812 C 22.644531 14.238281 22.757812 13.957031 22.738281 13.914062 C 22.722656 13.867188 22.609375 13.675781 22.550781 13.6875 C 22.542969 13.691406 22.539062 13.695312 22.535156 13.699219 C 22.46875 13.628906 22.03125 13.6875 21.898438 13.71875 C 21.75 13.753906 21.152344 14.078125 21.152344 14.078125 C 21.152344 14.078125 21.152344 14.082031 21.152344 14.082031 C 21.152344 14.082031 19.582031 16.558594 19.582031 16.558594 C 19.582031 16.558594 19.015625 17.375 19.023438 17.386719 C 18.875 18.160156 19.636719 18.414062 19.636719 18.414062 Z M 19.636719 18.414062 " fill-opacity="1" fill-rule="nonzero"/><path fill="#f7a491" d="M 22.0625 13.855469 C 22.132812 13.808594 22.460938 13.832031 22.535156 13.75 C 22.542969 13.808594 22.574219 13.882812 22.574219 13.882812 C 22.574219 13.882812 22.480469 14.152344 22.410156 14.179688 C 22.34375 14.210938 22.082031 14.203125 22.011719 14.175781 C 21.9375 14.152344 21.984375 13.914062 22.0625 13.855469 Z M 21.390625 14.796875 C 21.359375 14.8125 21.601562 14.769531 21.679688 14.78125 C 21.773438 14.796875 22.425781 14.789062 22.632812 14.761719 C 22.84375 14.730469 23.171875 14.601562 23.226562 14.535156 C 23.285156 14.46875 23.253906 14.390625 23.179688 14.449219 C 23.105469 14.507812 22.855469 14.539062 22.855469 14.539062 C 22.855469 14.539062 23.066406 14.421875 23.066406 14.421875 C 23.066406 14.421875 23.179688 14.300781 23.230469 14.1875 C 23.28125 14.078125 23.242188 13.972656 23.21875 13.964844 C 23.1875 13.953125 23.101562 14.167969 23.101562 14.167969 C 23.101562 14.167969 22.960938 14.257812 22.960938 14.257812 C 22.960938 14.257812 23.054688 14.125 23.054688 14.125 C 23.054688 14.125 23.128906 13.738281 23.03125 13.738281 C 22.933594 13.738281 22.925781 14.046875 22.925781 14.046875 C 22.925781 14.046875 22.765625 14.242188 22.71875 14.269531 C 22.664062 14.289062 22.625 14.277344 22.632812 14.257812 C 22.644531 14.238281 22.757812 13.957031 22.738281 13.914062 C 22.722656 13.867188 22.609375 13.675781 22.550781 13.6875 C 22.542969 13.691406 22.539062 13.695312 22.535156 13.699219 C 22.46875 13.628906 22.03125 13.6875 21.898438 13.71875 C 21.75 13.753906 21.152344 14.078125 21.152344 14.078125 C 21.152344 14.078125 21.152344 14.082031 21.152344 14.082031 C 21.152344 14.082031 20.804688 14.742188 21.390625 14.796875 Z M 21.390625 14.796875 " fill-opacity="1" fill-rule="nonzero"/><path fill="#f7a491" d="M 17.777344 15.375 C 17.777344 15.375 18.078125 16.070312 18.632812 17.21875 C 19.1875 18.371094 19.636719 18.414062 19.636719 18.414062 C 20.601562 18.035156 19.582031 16.558594 19.582031 16.558594 C 19.582031 16.558594 19 14.894531 19 14.894531 C 19 14.894531 17.777344 15.375 17.777344 15.375 Z M 17.777344 15.375 " fill-opacity="1" fill-rule="nonzero"/><path fill="#ff7685" d="M 17 12.128906 C 17 12.128906 17.613281 11.925781 17.613281 11.925781 C 17.613281 11.925781 17.835938 11.988281 18.054688 12.386719 C 18.273438 12.644531 19.253906 15.125 19.253906 15.125 C 19.253906 15.125 18.0625 15.640625 17.675781 15.632812 C 17.675781 15.632812 17.035156 14.105469 17.035156 14.105469 C 17.035156 14.105469 17 12.128906 17 12.128906 Z M 17 12.128906 " fill-opacity="1" fill-rule="nonzero"/><path fill="#8282a8" d="M 15.15625 19.695312 C 15.15625 19.695312 14.417969 19.316406 13.417969 19.019531 C 12.074219 18.621094 10.265625 18.355469 9.238281 19.214844 C 8.636719 19.71875 14.882812 20.382812 14.882812 20.382812 C 14.882812 20.382812 15.15625 19.695312 15.15625 19.695312 Z M 15.15625 19.695312 " fill-opacity="1" fill-rule="nonzero"/><path fill="#8282a8" d="M 21.910156 19.53125 C 21.910156 19.53125 21.316406 18.660156 19.785156 18.679688 C 19.1875 18.6875 18.359375 18.808594 17.609375 18.957031 C 16.269531 19.222656 15 19.667969 15 19.667969 C 15 19.667969 14.882812 20.382812 14.882812 20.382812 C 14.882812 20.382812 21.910156 19.53125 21.910156 19.53125 Z M 21.910156 19.53125 " fill-opacity="1" fill-rule="nonzero"/><path fill="#8282a8" d="M 13.207031 20.773438 C 13.207031 20.773438 15.925781 22.097656 15.925781 22.097656 C 15.925781 22.097656 18.050781 20.398438 18.050781 20.398438 C 18.050781 20.398438 17.351562 18.871094 17.351562 18.871094 C 17.351562 18.871094 13.5 19.109375 13.5 19.109375 C 13.5 19.109375 13.207031 20.773438 13.207031 20.773438 Z M 13.207031 20.773438 " fill-opacity="1" fill-rule="nonzero"/><path fill="#ff7685" d="M 17.597656 11.921875 C 17.597656 11.921875 16.417969 11.769531 15.316406 11.78125 C 14.378906 11.789062 13.121094 12.011719 13.054688 12.078125 C 12.792969 12.351562 12.960938 14.582031 13.109375 15.011719 C 13.253906 15.441406 13.933594 16.554688 13.808594 17.277344 C 13.683594 18.003906 13.421875 19.015625 13.421875 19.015625 C 13.421875 19.015625 14.308594 19.523438 15.425781 19.515625 C 16.101562 19.511719 17.027344 19.375 17.609375 18.949219 C 17.609375 18.949219 17.269531 18.050781 17.304688 17.339844 C 17.339844 16.632812 17.703125 15.425781 17.894531 14.992188 C 18.089844 14.558594 17.953125 11.992188 17.597656 11.921875 Z M 17.597656 11.921875 " fill-opacity="1" fill-rule="nonzero"/><path fill="#f7a491" d="M 15.78125 10.441406 C 15.78125 10.441406 15.855469 11.476562 15.921875 11.808594 C 15.992188 12.152344 16.082031 13.722656 15.371094 13.90625 C 14.664062 14.089844 14.835938 12.132812 14.820312 11.785156 C 14.804688 11.4375 14.640625 10.253906 14.640625 10.253906 C 14.640625 10.253906 15.78125 10.441406 15.78125 10.441406 Z M 15.78125 10.441406 " fill-opacity="1" fill-rule="nonzero"/><path fill="#f47458" d="M 14.640625 10.253906 C 14.640625 10.253906 14.671875 10.492188 14.707031 10.785156 C 14.972656 10.988281 15.335938 11.039062 15.753906 10.789062 C 15.773438 10.78125 15.789062 10.769531 15.808594 10.753906 C 15.792969 10.570312 15.78125 10.4375 15.78125 10.4375 C 15.78125 10.4375 14.640625 10.253906 14.640625 10.253906 Z M 14.640625 10.253906 " fill-opacity="1" fill-rule="nonzero"/><path fill="#f7a491" d="M 15.453125 8.011719 C 15.453125 8.011719 15.871094 8.121094 16.117188 8.53125 C 16.367188 8.9375 16.503906 10.113281 15.628906 10.632812 C 14.75 11.152344 14.109375 10.359375 14.121094 9.601562 C 14.136719 8.847656 14.332031 7.847656 15.453125 8.011719 Z M 15.453125 8.011719 " fill-opacity="1" fill-rule="nonzero"/><path fill="#f7a491" d="M 13.933594 9.359375 C 14 9.546875 14.144531 9.664062 14.25 9.621094 C 14.359375 9.582031 14.390625 9.402344 14.324219 9.21875 C 14.257812 9.03125 14.117188 8.914062 14.007812 8.957031 C 13.898438 8.992188 13.863281 9.175781 13.933594 9.359375 Z M 13.933594 9.359375 " fill-opacity="1" fill-rule="nonzero"/><path fill="#f7a491" d="M 16.097656 9.578125 C 16.027344 9.773438 16.078125 9.96875 16.207031 10.015625 C 16.339844 10.0625 16.5 9.941406 16.570312 9.746094 C 16.640625 9.550781 16.589844 9.355469 16.460938 9.3125 C 16.328125 9.265625 16.167969 9.382812 16.097656 9.578125 Z M 16.097656 9.578125 " fill-opacity="1" fill-rule="nonzero"/><path fill="#333343" d="M 15.324219 7.984375 C 15.324219 7.984375 15.824219 9.210938 16.296875 9.335938 C 16.765625 9.457031 16.738281 10.066406 16.738281 10.066406 C 16.738281 10.066406 16.773438 8.664062 16.339844 8.328125 C 15.90625 7.988281 15.324219 7.984375 15.324219 7.984375 Z M 15.324219 7.984375 " fill-opacity="1" fill-rule="nonzero"/><path fill="#f7a491" d="M 10.921875 21.355469 C 10.921875 21.355469 10.609375 21.097656 10.238281 21 C 9.863281 20.902344 9.871094 21.175781 9.777344 21.59375 C 9.683594 22.015625 9.519531 22.292969 9.316406 22.699219 C 9.113281 23.109375 9.359375 24.035156 9.476562 24.050781 C 9.75 24.078125 9.878906 23.488281 10.140625 22.984375 C 10.402344 22.476562 11.132812 22.308594 11.347656 22.285156 C 11.382812 22.28125 12.332031 22.132812 13.601562 22.140625 C 13.335938 21.636719 12.949219 21.222656 12.554688 20.78125 C 11.589844 21.117188 10.921875 21.355469 10.921875 21.355469 Z M 10.921875 21.355469 " fill-opacity="1" fill-rule="nonzero"/><path fill="#b1b1de" d="M 22.109375 19.996094 C 21.980469 19.339844 21.433594 19.074219 20.800781 19.089844 C 19.339844 19.128906 15.222656 20.070312 12.773438 20.835938 C 12.917969 21.363281 12.808594 21.710938 12.980469 22.253906 C 15.578125 22.113281 20.449219 21.710938 21.855469 20.898438 C 22.078125 20.773438 22.175781 20.3125 22.109375 19.996094 Z M 22.109375 19.996094 " fill-opacity="1" fill-rule="nonzero"/><path fill="#f7a491" d="M 20.410156 22.867188 C 20.222656 22.449219 20.039062 22.175781 19.960938 21.75 C 19.871094 21.25 19.914062 20.964844 19.300781 21.207031 C 18.945312 21.34375 18.554688 21.347656 18.203125 21.199219 C 17.972656 21.105469 17.6875 20.992188 17.363281 20.859375 C 17.152344 21.296875 17.023438 21.761719 16.988281 22.253906 C 17.757812 22.332031 18.316406 22.410156 18.34375 22.414062 C 18.464844 22.429688 19.300781 22.601562 19.535156 23.117188 C 19.773438 23.636719 19.882812 24.277344 20.152344 24.214844 C 20.304688 24.179688 20.59375 23.28125 20.410156 22.867188 Z M 20.410156 22.867188 " fill-opacity="1" fill-rule="nonzero"/><path fill="#d6d6ed" d="M 10.703125 18.863281 C 10.128906 18.84375 9.136719 18.953125 8.988281 19.601562 C 8.914062 19.917969 8.941406 20.359375 9.070312 20.65625 C 9.230469 21.027344 9.597656 21.226562 9.964844 21.386719 C 10.660156 21.679688 14.96875 22.136719 17.191406 22.363281 C 17.453125 21.890625 17.671875 21.363281 17.65625 20.898438 C 15.511719 20.039062 11.804688 18.890625 10.703125 18.863281 Z M 10.703125 18.863281 " fill-opacity="1" fill-rule="nonzero"/><path fill="#ff7685" d="M 3.808594 12.726562 C 3.808594 12.824219 3.730469 12.90625 3.632812 12.90625 C 3.535156 12.90625 3.453125 12.824219 3.453125 12.726562 C 3.453125 12.628906 3.535156 12.550781 3.632812 12.550781 C 3.730469 12.550781 3.808594 12.628906 3.808594 12.726562 Z M 3.808594 12.726562 " fill-opacity="1" fill-rule="nonzero"/><path fill="#ff7685" d="M 4.300781 15.070312 C 4.300781 15.15625 4.234375 15.222656 4.152344 15.222656 C 4.070312 15.222656 4.003906 15.15625 4.003906 15.070312 C 4.003906 14.988281 4.070312 14.921875 4.152344 14.921875 C 4.234375 14.921875 4.300781 14.988281 4.300781 15.070312 Z M 4.300781 15.070312 " fill-opacity="1" fill-rule="nonzero"/><path stroke-linecap="butt" transform="matrix(0.0348847, 0, 0, 0.0348847, 14.994765, 22.400076)" fill="none" stroke-linejoin="miter" d="M -325.700073 -277.299519 C -337.79348 -241.019298 -329.283305 -213.137275 -322.228817 -204.06722 C -318.981513 -200.036084 -314.838401 -203.395364 -314.726425 -203.50734 C -299.049787 -221.759427 -311.25517 -278.195327 -311.479122 -278.195327 C -312.262954 -279.986943 -319.653369 -295.663582 -325.700073 -277.299519 Z M -325.700073 -277.299519 " stroke="#ff7786" stroke-width="2" stroke-opacity="1" stroke-miterlimit="4"/><path fill="#ff7685" d="M 2.875 14.425781 C 2.941406 14.398438 3.015625 14.425781 3.042969 14.488281 C 3.074219 14.550781 3.046875 14.625 2.984375 14.65625 C 2.921875 14.683594 2.84375 14.65625 2.816406 14.59375 C 2.785156 14.53125 2.8125 14.457031 2.875 14.425781 Z M 2.875 14.425781 " fill-opacity="1" fill-rule="nonzero"/><path stroke-linecap="butt" transform="matrix(-0.0147429, -0.0316163, 0.0316163, -0.0147429, 6.893211, 0.154028)" fill="none" stroke-linejoin="miter" d="M -325.707457 -277.24326 C -334.574114 -247.895303 -329.314428 -213.072089 -322.154697 -204.050067 C -318.98761 -199.978641 -316.417392 -201.251166 -313.117905 -207.002148 C -300.296076 -243.772166 -311.258329 -278.289286 -311.508621 -278.282448 C -312.205884 -279.966657 -319.597577 -295.645092 -325.707457 -277.24326 Z M -325.707457 -277.24326 " stroke="#ff7786" stroke-width="2" stroke-opacity="1" stroke-miterlimit="4"/><path fill="#ff7685" d="M 2.949219 12.984375 C 3.011719 13.019531 3.035156 13.09375 3.003906 13.15625 C 2.96875 13.21875 2.894531 13.242188 2.832031 13.207031 C 2.769531 13.175781 2.746094 13.097656 2.78125 13.039062 C 2.8125 12.976562 2.890625 12.953125 2.949219 12.984375 Z M 2.949219 12.984375 " fill-opacity="1" fill-rule="nonzero"/><path stroke-linecap="butt" transform="matrix(0.0163774, -0.0308014, 0.0308014, 0.0163774, 16.602637, 8.060922)" fill="none" stroke-linejoin="miter" d="M -325.791184 -277.275626 C -334.522956 -247.902829 -329.291035 -213.018952 -322.103 -204.032011 C -318.946419 -200.003465 -316.422126 -201.218835 -313.160905 -207.011119 C -300.355742 -243.749425 -311.239594 -278.29135 -311.489902 -278.28508 C -312.284715 -280.018421 -319.589476 -295.664794 -325.791184 -277.275626 Z M -325.791184 -277.275626 " stroke="#ff7786" stroke-width="2" stroke-opacity="1" stroke-miterlimit="4"/><path fill="#ff7685" d="M 4.109375 13.859375 C 4.109375 13.992188 4.003906 14.101562 3.871094 14.101562 C 3.738281 14.101562 3.628906 13.992188 3.628906 13.859375 C 3.628906 13.726562 3.738281 13.621094 3.871094 13.621094 C 4.007812 13.621094 4.109375 13.726562 4.109375 13.859375 Z M 4.109375 13.859375 " fill-opacity="1" fill-rule="nonzero"/></svg>