<svg xmlns="http://www.w3.org/2000/svg" width="256" height="256" viewBox="0 0 100 100"><rect width="100" height="100" rx="20" fill="#07beb8"></rect><path fill="#fff" d="M77.45 21.52L77.45 21.52Q81.32 23.67 83.80 27.36Q86.27 31.05 86.27 35.64Q86.27 40.23 80.51 46.17Q74.75 52.11 66.52 56.30Q58.28 60.48 52.20 60.48Q46.13 60.48 43.43 55.44L43.43 55.44Q27.95 76.23 25.97 80.64L25.97 80.64Q26.06 81.09 26.06 81.95Q26.06 82.80 25.07 82.80Q24.08 82.80 22.51 81.14Q20.93 79.47 20.93 76.41L20.93 76.41Q20.93 75.52 21.02 74.97L21.02 74.97Q21.83 69.03 37.54 51.57Q53.24 34.11 60.17 30.33L60.17 30.33Q61.61 29.61 62.33 29.61Q63.05 29.61 63.81 30.06Q64.58 30.51 64.58 31.14Q64.58 31.77 64.22 32.13L64.22 32.13Q57.47 39.15 56.12 40.68L56.12 40.68L45.41 53.10Q45.23 53.38 45.23 53.64L45.23 53.64Q45.23 54.27 46.04 54.27L46.04 54.27Q49.64 54.27 55.81 52.20Q61.97 50.13 68 47.03Q74.03 43.92 78.44 39.74Q82.85 35.55 82.85 31.95L82.85 31.95Q82.85 28.98 77.18 27.54Q71.51 26.10 64.98 26.10Q58.46 26.10 50.90 27.95Q43.34 29.79 37.72 32.49Q32.09 35.19 27.59 38.12Q23.09 41.04 20.80 43.25Q18.50 45.45 18.50 46.13Q18.50 46.80 19.13 46.80Q19.76 46.80 22.55 45.90L22.55 45.90Q31.55 42.93 40.19 37.89L40.19 37.89Q40.82 37.53 41.05 37.53Q41.27 37.53 41.27 37.76Q41.27 37.98 40.15 39.47Q39.02 40.95 37.04 43.07Q35.06 45.18 32.72 47.16Q30.38 49.14 27.46 50.54Q24.53 51.93 21.79 51.93Q19.04 51.93 16.39 49.73Q13.73 47.52 13.73 43.70Q13.73 39.87 17.51 35.38Q21.29 30.88 27.46 26.82Q33.62 22.77 42.80 19.98Q51.98 17.20 60.71 17.20Q69.44 17.20 77.45 21.52Z"></path></svg>