<svg viewBox="0 0 512 512" xml:space="preserve" xmlns="http://www.w3.org/2000/svg"><path d="M256 198.618c18.385 0 33.342-14.956 33.342-33.341 0-18.386-14.957-33.343-33.342-33.343s-33.341 14.957-33.341 33.343c0 18.385 14.956 33.341 33.341 33.341z" fill="#ffffff" class="fill-000000"></path><path d="M251.45 278.97c1.465 1.021 3.01 1.513 4.681 1.513 5.779 0 13.063-5.891 23.682-16.229 8.614-8.385 17.011-17.679 18.499-19.485 22.142-26.836 33.419-61.014 30.168-91.426v-.001a97.778 97.778 0 0 0-1.112-7.566c-2.92-15.498-12.361-29.746-26.582-40.117-13.242-9.656-29.816-15.193-45.473-15.193h-.003c-21.751 0-41.284 8.878-54.999 24.999-13.959 16.407-19.908 38.492-16.32 60.591 6.501 40.054 31.09 77.564 67.459 102.914zM256 118.435c25.828 0 46.842 21.013 46.842 46.843 0 25.828-21.014 46.841-46.842 46.841s-46.841-21.013-46.841-46.841c0-25.831 21.013-46.843 46.841-46.843zM135.927 297.196c-3.229 2.84-4.92 4.929-5.103 5.157-2.313 2.904-1.833 7.116 1.058 9.446a6.7 6.7 0 0 0 4.222 1.488 6.768 6.768 0 0 0 5.257-2.494c.011-.014 1.177-1.433 3.483-3.462a6.75 6.75 0 1 0-8.917-10.135zM275.134 312.563a6.751 6.751 0 0 0-6.038 12.075c3.96 1.981 7.661 3.681 11.314 5.198a6.75 6.75 0 0 0 5.177-12.466 165.218 165.218 0 0 1-10.453-4.807zM229.68 287.338a6.748 6.748 0 0 0-9.03 3.097 6.748 6.748 0 0 0 3.097 9.029c3.035 1.484 6.388 3.262 10.252 5.431a6.749 6.749 0 0 0 9.191-2.58 6.748 6.748 0 0 0-2.58-9.19c-4.09-2.298-7.666-4.189-10.93-5.787zM188.023 278.062a94.535 94.535 0 0 0-12.842 1.199 6.748 6.748 0 0 0-5.565 7.755 6.75 6.75 0 0 0 7.754 5.566 80.854 80.854 0 0 1 11.001-1.025 6.75 6.75 0 0 0 6.573-6.922c-.094-3.727-3.213-6.611-6.921-6.573zM321.788 338.726a89.292 89.292 0 0 0 12.913-1.011 6.75 6.75 0 0 0 5.659-7.688c-.56-3.687-4.019-6.215-7.688-5.66a75.48 75.48 0 0 1-10.954.858 6.748 6.748 0 0 0-6.715 6.784 6.749 6.749 0 0 0 6.785 6.717zM370.794 323.564c1.202 0 2.42-.321 3.521-.996a146.452 146.452 0 0 0 5.358-3.452 6.748 6.748 0 0 0 1.816-9.37 6.748 6.748 0 0 0-9.37-1.817 134.984 134.984 0 0 1-4.859 3.13 6.748 6.748 0 0 0 3.534 12.505z" fill="#ffffff" class="fill-000000"></path><path d="m426.798 359.464-34.134-107.859c-3.5-11.059-13.644-18.488-25.243-18.488h-45.127a6.749 6.749 0 0 0-6.75 6.75 6.75 6.75 0 0 0 6.75 6.75h40.599l-43.405 39.937a6.752 6.752 0 0 0 9.142 9.936l48.814-44.914c.036-.033.061-.073.095-.106a13.028 13.028 0 0 1 2.256 4.21l34.133 107.858c1.263 3.989.567 8.212-1.904 11.586-2.471 3.373-6.287 5.309-10.469 5.309h-22.656l-25.419-28.188a6.75 6.75 0 1 0-10.025 9.041l17.267 19.146H164.438l35.631-50.175a6.747 6.747 0 0 0-1.595-9.411 6.751 6.751 0 0 0-9.41 1.595l-41.182 57.991h-37.436c-4.182 0-7.998-1.936-10.469-5.309-2.472-3.374-3.167-7.597-1.905-11.585l34.136-107.86a12.924 12.924 0 0 1 12.371-9.061h45.129a6.75 6.75 0 0 0 6.75-6.75 6.749 6.749 0 0 0-6.75-6.75h-45.129c-11.601 0-21.745 7.43-25.243 18.488l-34.135 107.86c-2.573 8.136-1.157 16.75 3.886 23.635 5.041 6.883 12.827 10.831 21.359 10.831h291.107c8.532 0 16.318-3.948 21.36-10.831 5.043-6.885 6.459-15.499 3.885-23.636zM254.281 408.036h-91.737a6.75 6.75 0 1 0 0 13.5h91.737a6.75 6.75 0 0 0 6.75-6.75 6.75 6.75 0 0 0-6.75-6.75zM297.481 408.036H282.63a6.749 6.749 0 0 0-6.75 6.75 6.75 6.75 0 0 0 6.75 6.75h14.851a6.75 6.75 0 1 0 0-13.5zM379.831 408.036h-55.35a6.749 6.749 0 0 0-6.75 6.75 6.75 6.75 0 0 0 6.75 6.75h55.35a6.75 6.75 0 0 0 6.75-6.75 6.75 6.75 0 0 0-6.75-6.75z" fill="#ffffff" class="fill-000000"></path></svg>